# xmcd CD database file
#
# Track frame offsets:
#	150
#	23397
#	48867
#	70292
#
# Disc length: 1243 seconds
#
# Revision: 0
# Processed by: cddbd v1.5.1PL0 Copyright (c) Steve Scherf et al.
# Submitted via: CDex 1.51
#
DISCID=2604d904
DTITLE=y'z factory - Voice of Heart
DYEAR=2000
DGENRE=JPop
TTITLE0=Voice of Heart
TTITLE1=Honest Love
TTITLE2=But
TTITLE3=Voice of Heart:instrumental
EXTD=YEAR: 2000
EXTT0=
EXTT1=
EXTT2=
EXTT3=
PLAYORDER=
